<svg width="180" height="180" xmlns="http://www.w3.org/2000/svg">
  <path d="M161.818 8.439c.011.186.017.374.017.561v161c0 4.97-4.034 9-9.01 9a9.02 9.02 0 01-.404-.01l-120.264-5.394a9.005 9.005 0 01-8.6-8.653l-5.55-147.751c-.184-4.88 3.562-9.015 8.441-9.32l98.607-6.156-.844 20.286c-.01.26.055.516.186.738l.087.13c.42.553 1.187.69 1.769.335l.114-.078 7.888-5.977 6.663 5.243a1.345 1.345 0 002.174-.972l.001-.13L142.37.636l9.893-.618c4.967-.31 9.244 3.46 9.555 8.42zm-69.185 22.02c-23.455 0-36.596 12.724-36.596 31.81 0 33.243 44.913 33.879 44.913 52.011 0 5.09-2.495 8.112-7.985 8.112l-.486-.006c-6.795-.166-9.487-3.928-9.162-16.05 0-2.69-27.28-3.53-28.112 0-2.118 30.066 16.635 38.738 38.093 38.738 20.793 0 37.095-11.07 37.095-31.112 0-35.628-45.579-34.674-45.579-52.329 0-7.044 5.156-8.08 8.332-8.111l.698.006c3.393.09 8.743 1.282 8.27 13.94 0 3.5 23.612 1.823 26.782-.637 0-23.843-12.809-36.373-36.263-36.373z" fill="#092E20"/>
</svg>
